g BallOptimized
v 0 -0.51 0
v -0.3690397 -0.228082 0.2681199
v 0.1409579 -0.2280821 0.4338311
v 0.4561574 -0.22808 0
v 0.1409579 -0.2280821 -0.4338311
v -0.3690397 -0.228082 -0.2681199
v -0.1409579 0.2280821 0.4338311
v 0.3690397 0.228082 0.2681199
v 0.3690397 0.228082 -0.2681199
v -0.1409579 0.2280821 -0.4338311
v -0.4561574 0.22808 0
v 0 0.51 0
v -0.2169146 -0.4338336 0.1575958
v -0.1340631 -0.2681262 0.412596
v 0.08285233 -0.4338337 0.2549976
v -0.2169146 -0.4338336 -0.1575958
v -0.4338304 -0.2681253 0
v 0.3509766 -0.2681255 0.2549984
v 0.2681222 -0.4338323 0
v 0.3509766 -0.2681255 -0.2549984
v 0.08285233 -0.4338337 -0.2549976
v -0.1340631 -0.2681262 -0.412596
v -0.4850396 0 -0.1575965
v -0.4850396 0 0.1575965
v -0.2997707 0 0.4125986
v 0 0 0.51
v 0.2997707 0 0.4125986
v 0.4850396 0 0.1575965
v 0.4850396 0 -0.1575965
v 0.2997707 0 -0.4125986
v 0 0 -0.51
v -0.2997707 0 -0.4125986
v -0.3509766 0.2681255 0.2549984
v 0.1340631 0.2681262 0.412596
v 0.4338304 0.2681253 0
v 0.1340631 0.2681262 -0.412596
v -0.3509766 0.2681255 -0.2549984
v -0.2681222 0.4338323 0
v -0.08285233 0.4338337 0.2549976
v 0.2169146 0.4338336 0.1575958
v 0.2169146 0.4338336 -0.1575958
v -0.08285233 0.4338337 -0.2549976
vn 0 -1 0
vn -0.7236073 -0.4472195 0.5257253
vn 0.276388 -0.4472198 0.8506492
vn 0.8944262 -0.4472156 0
vn 0.276388 -0.4472198 -0.8506492
vn -0.7236073 -0.4472195 -0.5257253
vn -0.276388 0.4472198 0.8506492
vn 0.7236073 0.4472195 0.5257253
vn 0.7236073 0.4472195 -0.5257253
vn -0.276388 0.4472198 -0.8506492
vn -0.8944262 0.4472156 0
vn 0 1 0
vn -0.4253227 -0.8506542 0.3090114
vn -0.2628688 -0.5257377 0.8090117
vn 0.1624556 -0.8506544 0.4999953
vn -0.4253227 -0.8506542 -0.3090114
vn -0.8506479 -0.5257359 0
vn 0.6881893 -0.5257362 0.4999969
vn 0.5257298 -0.8506516 0
vn 0.6881893 -0.5257362 -0.4999969
vn 0.1624556 -0.8506544 -0.4999953
vn -0.2628688 -0.5257377 -0.8090117
vn -0.951058 0 -0.3090127
vn -0.951058 0 0.3090127
vn -0.5877856 0 0.8090168
vn 0 0 1
vn 0.5877856 0 0.8090168
vn 0.951058 0 0.3090127
vn 0.951058 0 -0.3090127
vn 0.5877856 0 -0.8090168
vn 0 0 -1
vn -0.5877856 0 -0.8090168
vn -0.6881893 0.5257362 0.4999969
vn 0.2628688 0.5257377 0.8090117
vn 0.8506479 0.5257359 0
vn 0.2628688 0.5257377 -0.8090117
vn -0.6881893 0.5257362 -0.4999969
vn -0.5257298 0.8506516 0
vn -0.1624556 0.8506544 0.4999953
vn 0.4253227 0.8506542 0.3090114
vn 0.4253227 0.8506542 -0.3090114
vn -0.1624556 0.8506544 -0.4999953
g BallOptimized_0
f 15/15/15 13/13/13 1/1/1
f 14/14/14 2/2/2 13/13/13
f 15/15/15 3/3/3 14/14/14
f 15/15/15 14/14/14 13/13/13
f 17/17/17 13/13/13 2/2/2
f 16/16/16 1/1/1 13/13/13
f 17/17/17 6/6/6 16/16/16
f 17/17/17 16/16/16 13/13/13
f 19/19/19 15/15/15 1/1/1
f 18/18/18 3/3/3 15/15/15
f 19/19/19 4/4/4 18/18/18
f 19/19/19 18/18/18 15/15/15
f 21/21/21 19/19/19 1/1/1
f 20/20/20 4/4/4 19/19/19
f 21/21/21 5/5/5 20/20/20
f 21/21/21 20/20/20 19/19/19
f 16/16/16 21/21/21 1/1/1
f 22/22/22 5/5/5 21/21/21
f 16/16/16 6/6/6 22/22/22
f 16/16/16 22/22/22 21/21/21
f 24/24/24 17/17/17 2/2/2
f 23/23/23 6/6/6 17/17/17
f 24/24/24 11/11/11 23/23/23
f 24/24/24 23/23/23 17/17/17
f 26/26/26 14/14/14 3/3/3
f 25/25/25 2/2/2 14/14/14
f 26/26/26 7/7/7 25/25/25
f 26/26/26 25/25/25 14/14/14
f 28/28/28 18/18/18 4/4/4
f 27/27/27 3/3/3 18/18/18
f 28/28/28 8/8/8 27/27/27
f 28/28/28 27/27/27 18/18/18
f 30/30/30 20/20/20 5/5/5
f 29/29/29 4/4/4 20/20/20
f 30/30/30 9/9/9 29/29/29
f 30/30/30 29/29/29 20/20/20
f 32/32/32 22/22/22 6/6/6
f 31/31/31 5/5/5 22/22/22
f 32/32/32 10/10/10 31/31/31
f 32/32/32 31/31/31 22/22/22
f 25/25/25 24/24/24 2/2/2
f 33/33/33 11/11/11 24/24/24
f 25/25/25 7/7/7 33/33/33
f 25/25/25 33/33/33 24/24/24
f 27/27/27 26/26/26 3/3/3
f 34/34/34 7/7/7 26/26/26
f 27/27/27 8/8/8 34/34/34
f 27/27/27 34/34/34 26/26/26
f 29/29/29 28/28/28 4/4/4
f 35/35/35 8/8/8 28/28/28
f 29/29/29 9/9/9 35/35/35
f 29/29/29 35/35/35 28/28/28
f 31/31/31 30/30/30 5/5/5
f 36/36/36 9/9/9 30/30/30
f 31/31/31 10/10/10 36/36/36
f 31/31/31 36/36/36 30/30/30
f 23/23/23 32/32/32 6/6/6
f 37/37/37 10/10/10 32/32/32
f 23/23/23 11/11/11 37/37/37
f 23/23/23 37/37/37 32/32/32
f 39/39/39 33/33/33 7/7/7
f 38/38/38 11/11/11 33/33/33
f 39/39/39 12/12/12 38/38/38
f 39/39/39 38/38/38 33/33/33
f 40/40/40 34/34/34 8/8/8
f 39/39/39 7/7/7 34/34/34
f 40/40/40 12/12/12 39/39/39
f 40/40/40 39/39/39 34/34/34
f 41/41/41 35/35/35 9/9/9
f 40/40/40 8/8/8 35/35/35
f 41/41/41 12/12/12 40/40/40
f 41/41/41 40/40/40 35/35/35
f 42/42/42 36/36/36 10/10/10
f 41/41/41 9/9/9 36/36/36
f 42/42/42 12/12/12 41/41/41
f 42/42/42 41/41/41 36/36/36
f 38/38/38 37/37/37 11/11/11
f 42/42/42 10/10/10 37/37/37
f 38/38/38 12/12/12 42/42/42
f 38/38/38 42/42/42 37/37/37
