g platform
v 0.4597567 0.10246 -0.5048519
v -0.4668868 0.10246 -0.5047553
v -0.4338428 0.1024601 -0.510085
v 0.4712044 0.09559964 -0.5337771
v 0.4854809 0.10246 -0.491885
v 0.5047526 0.09559949 -0.5167536
v 0.4828744 0.07685612 -0.5589108
v 0.5063709 0.10246 -0.4712067
v 0.5224789 0.07685552 -0.5387503
v 0.4922401 0.05125249 -0.5741426
v 0.5345266 0.05125111 -0.5525967
v 0.5316166 0.09559949 -0.4899968
v 0.5198252 0.10246 -0.4451027
v 0.5539743 0.07685574 -0.507284
v 0.5680847 0.05125157 -0.5190384
v 0.5488853 0.09559952 -0.4562573
v 0.5251576 0.1024601 -0.4120573
v 0.555178 0.09559708 -0.4167815
v 0.4854809 0.10246 -0.491885
v -0.4929911 0.10246 -0.4913055
v -0.4668868 0.10246 -0.5047553
v 0.4862264 0.10246 0.5033495
v 0.4601441 0.10246 0.5167944
v -0.4921544 0.10246 0.50392
v 0.4601441 0.10246 0.5167944
v 0.4271195 0.1024601 0.5221871
v -0.4664801 0.10246 0.5169539
v -0.5748081 0.05125123 -0.5190384
v -0.5935647 -0.05125159 -0.5362735
v -0.558905 -0.05125136 -0.5709329
v -0.54125 0.05125161 -0.5525967
v -0.5152311 -0.05125254 -0.5931858
v -0.52931 0.07685574 -0.5386714
v -0.5607765 0.07685567 -0.5071765
v -0.4989635 0.05125165 -0.5741426
v -0.4668179 -0.05125254 -0.6008539
v -0.5118726 0.09559949 -0.5164618
v -0.5386299 0.09559949 -0.4896012
v -0.4896533 0.07685578 -0.5588976
v -0.4781326 0.09559952 -0.5337282
v -0.4520893 0.05123574 -0.5815667
v -0.4451281 0.07684781 -0.5659567
v 0.445366 0.05125249 -0.5815667
v 0.4600945 -0.05123572 -0.6008539
v 0.5085077 -0.05125186 -0.5931858
v -0.4386571 0.09559713 -0.5400206
v 0.4383488 0.07685612 -0.5659633
v 0.4922401 0.05125249 -0.5741426
v 0.5521816 -0.05125167 -0.5709329
v 0.4828744 0.07685612 -0.5589108
v 0.5345266 0.05125111 -0.5525967
v 0.5868413 -0.05125144 -0.5362735
v 0.5680847 0.05125157 -0.5190384
v 0.4712044 0.09559964 -0.5337771
v 0.431727 0.09559983 -0.5400446
v 0.4597567 0.10246 -0.5048519
v 0.4267087 0.1024601 -0.510133
v -0.4338428 0.1024601 -0.510085
v -0.4668868 0.10246 -0.5047553
v -0.4929911 0.10246 -0.4913055
v -0.5136701 0.10246 -0.4704207
v -0.5556583 0.09559964 -0.4560467
v -0.526648 0.10246 -0.4446842
v 0.5063709 0.10246 -0.4712067
v 0.4854809 0.10246 -0.491885
v -0.4668868 0.10246 -0.5047553
v 0.5198252 0.10246 -0.4451027
v 0.5251576 0.1024601 -0.4120573
v -0.5319298 0.1024601 -0.411635
v 0.5252064 0.1024601 0.423737
v 0.555178 0.09559708 -0.4167815
v 0.5552033 0.09559983 0.4286707
v 0.5199246 0.10246 0.4567863
v 0.548935 0.09559964 0.4681487
v 0.5680847 0.05125157 -0.5190384
v 0.5868413 -0.05125144 -0.5362735
v 0.6090943 -0.05125254 -0.4925994
v 0.5896309 0.05125165 -0.4767522
v 0.6167621 -0.05125254 -0.4441864
v 0.5742017 0.07685578 -0.4676276
v 0.5539743 0.07685574 -0.507284
v 0.5488853 0.09559952 -0.4562573
v 0.5316166 0.09559949 -0.4899968
v 0.555178 0.09559708 -0.4167815
v 0.5812607 0.07684762 -0.4231023
v 0.5552033 0.09559983 0.4286707
v 0.5970546 0.05123521 -0.429878
v 0.5812669 0.07685612 0.4351468
v 0.548935 0.09559964 0.4681487
v 0.5970546 0.05125249 0.44198
v 0.6167621 -0.05123527 0.4562884
v 0.6090943 -0.05125171 0.5047014
v 0.5742151 0.07685612 0.4796721
v 0.5318738 0.09559949 0.501679
v 0.5896309 0.05125249 0.4888542
v 0.5868413 -0.05125159 0.5483754
v 0.554044 0.07685567 0.5192721
v 0.5680847 0.05125123 0.5311403
v 0.5521816 -0.05125136 0.583035
v 0.5345266 0.05125161 0.5646988
v 0.5085077 -0.05125254 0.6052879
v 0.5225807 0.07685574 0.5507654
v 0.5051283 0.09559949 0.5285348
v 0.4922401 0.05125165 0.5862447
v 0.4600945 -0.05125254 0.612956
v 0.4829273 0.07685578 0.5709914
v 0.4862264 0.10246 0.5033495
v 0.5068818 0.10246 0.4824745
v 0.4713992 0.09559952 0.5457988
v 0.4601441 0.10246 0.5167944
v 0.4271195 0.1024601 0.5221871
v -0.5130345 0.10246 0.4832657
v -0.5264838 0.10246 0.457184
v -0.4921544 0.10246 0.50392
v 0.4319338 0.09559713 0.5521226
v 0.4384047 0.07684781 0.5780587
v -0.4334321 0.1024601 0.522235
v -0.4664801 0.10246 0.5169539
v 0.4601441 0.10246 0.5167944
v -0.4384504 0.09559983 0.5521466
v 0.445366 0.05123574 0.5936688
v -0.4779277 0.09559964 0.5458791
v -0.4450722 0.07685612 0.5780653
v -0.4520893 0.05125249 0.5936688
v -0.4668179 -0.05123572 0.612956
v -0.5152311 -0.05125186 0.6052879
v -0.5114511 0.09559949 0.5288222
v -0.4895977 0.07685612 0.5710129
v -0.4989635 0.05125249 0.5862447
v -0.558905 -0.05125167 0.583035
v -0.5383097 0.09559949 0.5020772
v -0.5291954 0.07685552 0.5508434
v -0.54125 0.05125111 0.5646988
v -0.5935647 -0.05125144 0.5483754
v -0.5555759 0.09559952 0.4683488
v -0.531881 0.1024601 0.4241592
v -0.5619014 0.09559708 0.4288835
v -0.5606899 0.07685574 0.5193803
v -0.5555759 0.09559952 0.4683488
v -0.5748081 0.05125157 0.5311403
v -0.6158177 -0.05125254 0.5047014
v -0.5809157 0.07685578 0.4797264
v -0.5619014 0.09559708 0.4288835
v -0.5963544 0.05125165 0.4888542
v -0.6234855 -0.05125254 0.4562884
v -0.5879841 0.07684762 0.4352043
v -0.5619266 0.09559983 -0.4165688
v -0.603778 0.05123521 0.44198
v -0.5879903 0.07685612 -0.4230448
v -0.5556583 0.09559964 -0.4560467
v -0.603778 0.05125249 -0.429878
v -0.6234855 -0.05123527 -0.4441864
v -0.6158177 -0.05125171 -0.4925994
v -0.5809383 0.07685612 -0.4675701
v -0.5386299 0.09559949 -0.4896012
v -0.5607765 0.07685567 -0.5071765
v -0.5963544 0.05125249 -0.4767522
v -0.5935647 -0.05125159 -0.5362735
v -0.5748081 0.05125123 -0.5190384
v -0.5619266 0.09559983 -0.4165688
v -0.5556583 0.09559964 -0.4560467
v -0.526648 0.10246 -0.4446842
v -0.5319298 0.1024601 -0.411635
v -0.5619014 0.09559708 0.4288835
v -0.531881 0.1024601 0.4241592
v 0.5252064 0.1024601 0.423737
v 0.5199246 0.10246 0.4567863
v -0.5264838 0.10246 0.457184
v 0.5068818 0.10246 0.4824745
v 0.548935 0.09559964 0.4681487
v 0.5318738 0.09559949 0.501679
vt 0.5996094 0.487793
vt 0.3986816 0.4907227
vt 0.4067383 0.489502
vt 0.5976563 0.4943848
vt 0.6054688 0.4848633
vt 0.5668945 0.4631348
vt 0.5961914 0.5268555
vt 0.6098633 0.4804688
vt 0.5717773 0.5004883
vt 0.6040039 0.5625
vt 0.6147461 0.5625
vt 0.2556152 0.2299805
vt 0.612793 0.4750977
vt 0.4406738 0.3967285
vt 0.625 0.5625
vt 0 0
vt 0.6137695 0.4677734
vt 0.625 0.46875
vt 0.6054688 0.4848633
vt 0.3918457 0.4909668
vt 0.3986816 0.4907227
vt 0.6083984 0.2590332
vt 0.6015625 0.2592773
vt 0.3945313 0.2651367
vt 0.6015625 0.2592773
vt 0.5932617 0.260498
vt 0.4001465 0.2624512
vt 0.375 0.5625
vt 0.375 0.6875
vt 0.385498 0.6875
vt 0.385498 0.5625
vt 0.395752 0.6875
vt 0.3608398 0.5014648
vt 0.2641602 0.3962402
vt 0.395752 0.5625
vt 0.40625 0.6875
vt 0.3591309 0.4643555
vt 0.15271 0.2290039
vt 0.3916016 0.5273438
vt 0.3930664 0.4953613
vt 0.40625 0.5625
vt 0.4060059 0.5375977
vt 0.59375 0.5625
vt 0.59375 0.6875
vt 0.6040039 0.6875
vt 0.40625 0.5136719
vt 0.5932617 0.5375977
vt 0.6040039 0.5625
vt 0.6147461 0.6875
vt 0.5961914 0.5268555
vt 0.6147461 0.5625
vt 0.625 0.6875
vt 0.625 0.5625
vt 0.5976563 0.4943848
vt 0.5927734 0.5126953
vt 0.5996094 0.487793
vt 0.5927734 0.4887695
vt 0.4067383 0.489502
vt 0.3986816 0.4907227
vt 0.3918457 0.4909668
vt 0.3852539 0.4909668
vt 0 0
vt 0.2359619 0.2939453
vt 0.6098633 0.4804688
vt 0.6054688 0.4848633
vt 0.3986816 0.4907227
vt 0.612793 0.4750977
vt 0.6137695 0.4677734
vt 0.04837036 0.03811646
vt 0.05413818 0.03872681
vt 0.625 0.46875
vt 0.625 0.28125
vt 0.3710938 0.161377
vt 0 0
vt 0.875 0.1875
vt 0.875 0.06246948
vt 0.859375 0.06246948
vt 0.859375 0.1875
vt 0.84375 0.06246948
vt 0.8588867 0.2159424
vt 0.8706055 0.2059326
vt 0.859375 0.25
vt 0.8657227 0.2244873
vt 0.84375 0.25
vt 0.84375 0.2186279
vt 0.65625 0.25
vt 0.84375 0.1875
vt 0.65625 0.2186279
vt 0.640625 0.25
vt 0.65625 0.1875
vt 0.65625 0.0625
vt 0.6430664 0.06246948
vt 0.6411133 0.2172852
vt 0.625 0.25
vt 0.6416016 0.1875
vt 0.6298828 0.06246948
vt 0.6264648 0.2164307
vt 0.6264648 0.1875
vt 0.6176758 0.06246948
vt 0.6157227 0.1875
vt 0.605957 0.06246948
vt 0.6142578 0.2111816
vt 0.6123047 0.2358398
vt 0.6044922 0.1875
vt 0.59375 0.06246948
vt 0.6040039 0.2099609
vt 0.6083984 0.2590332
vt 0.6147461 0.2590332
vt 0.6030273 0.2333984
vt 0.6015625 0.2592773
vt 0.5932617 0.260498
vt 0.3901367 0.2695313
vt 0.387207 0.2751465
vt 0.3945313 0.2651367
vt 0.59375 0.2358398
vt 0.59375 0.2115479
vt 0.4072266 0.2614746
vt 0.4001465 0.2624512
vt 0.6015625 0.2592773
vt 0.4067383 0.2366943
vt 0.59375 0.1875
vt 0.3979492 0.2353516
vt 0.4064941 0.2120361
vt 0.40625 0.1875
vt 0.40625 0.0625
vt 0.3942871 0.06246948
vt 0.3886719 0.2384033
vt 0.3964844 0.2108154
vt 0.3952637 0.1875
vt 0.3823242 0.06246948
vt 0.375 0.25
vt 0.3859863 0.2122803
vt 0.3842773 0.1875
vt 0.3703613 0.06246948
vt 0 0
vt 0.3862305 0.2824707
vt 0.375 0.28125
vt 0.3737793 0.2165527
vt 0.359375 0.25
vt 0.3735352 0.1875
vt 0.3569336 0.06246948
vt 0.3588867 0.2174072
vt 0.34375 0.25
vt 0.3586426 0.1875
vt 0.34375 0.06246948
vt 0.3439941 0.2186279
vt 0.15625 0.25
vt 0.34375 0.1875
vt 0.1560059 0.2186279
vt 0.140625 0.25
vt 0.15625 0.1875
vt 0.15625 0.0625
vt 0.140625 0.06246948
vt 0.1412354 0.2159424
vt 0.1342773 0.2246094
vt 0.1296387 0.2060547
vt 0.140625 0.1875
vt 0.125 0.06246948
vt 0.125 0.1875
vt 0.375 0.46875
vt 0 0
vt 0.2359619 0.2939453
vt 0.04837036 0.03811646
vt 0.375 0.28125
vt 0.3862305 0.2824707
vt 0.05413818 0.03872681
vt 0.3710938 0.161377
vt 0.387207 0.2751465
vt 0.6147461 0.2590332
vt 0 0
vt 0.625 0.25
vn 7.855892E-05 1 -0.0002541542
vn -8.064508E-05 1 -0.0002563
vn -1.92523E-05 1 -0.003250122
vn 0.1293945 0.9018555 -0.4125977
vn 0.000148654 1 -0.0002068281
vn 0.2498779 0.9042969 -0.3464355
vn 0.2183838 0.6948242 -0.6855469
vn 0.0002071857 1 -0.0001512766
vn 0.4145508 0.7070313 -0.5727539
vn 0.2910156 0.2937012 -0.9106445
vn 0.5566406 0.3134766 -0.769043
vn 0.3449707 0.9042969 -0.2507324
vn 0.0002563 1 -8.070469E-05
vn 0.5717773 0.7080078 -0.4145508
vn 0.769043 0.314209 -0.5571289
vn 0.4108887 0.9023438 -0.1300049
vn 0.003154755 1 -1.92523E-05
vn 0.4353027 0.9003906 -0.002891541
vn 0.000148654 1 -0.0002068281
vn -0.0001512766 1 -0.0002071857
vn -8.064508E-05 1 -0.0002563
vn 0.0001512766 1 0.0002071857
vn 8.076429E-05 1 0.0002560616
vn -0.0001485348 1 0.0002063513
vn 8.076429E-05 1 0.0002560616
vn 1.943111E-05 1 0.003252029
vn -7.891655E-05 1 0.000254631
vn -0.769043 0.314209 -0.5571289
vn -0.7836914 0.2397461 -0.5727539
vn -0.5732422 0.2388916 -0.7836914
vn -0.5566406 0.3134766 -0.769043
vn -0.3100586 0.2209473 -0.9248047
vn -0.4147949 0.7075195 -0.5722656
vn -0.5722656 0.7080078 -0.4143066
vn -0.2910156 0.2937012 -0.9106445
vn -0.008995056 0.1861572 -0.9824219
vn -0.2507324 0.9042969 -0.345459
vn -0.3461914 0.9042969 -0.2498779
vn -0.21875 0.6948242 -0.6850586
vn -0.130127 0.9018555 -0.4118652
vn -0.007022858 0.25 -0.9682617
vn -0.00528717 0.6645508 -0.7475586
vn 0.007019043 0.25 -0.9682617
vn 0.008995056 0.1861572 -0.9824219
vn 0.3100586 0.2209473 -0.9248047
vn -0.002813339 0.8994141 -0.4372559
vn 0.005268097 0.6640625 -0.7475586
vn 0.2910156 0.2937012 -0.9106445
vn 0.5732422 0.2388916 -0.7836914
vn 0.2183838 0.6948242 -0.6855469
vn 0.5566406 0.3134766 -0.769043
vn 0.7836914 0.2397461 -0.5727539
vn 0.769043 0.314209 -0.5571289
vn 0.1293945 0.9018555 -0.4125977
vn 0.0027771 0.8989258 -0.4379883
vn 7.855892E-05 1 -0.0002541542
vn 1.877546E-05 1 -0.003259659
vn -1.92523E-05 1 -0.003250122
vn -8.064508E-05 1 -0.0002563
vn -0.0001512766 1 -0.0002071857
vn -0.0002068281 1 -0.0001487732
vn -0.4116211 0.9023438 -0.1292725
vn -0.0002543926 1 -7.861853E-05
vn 0.0002071857 1 -0.0001512766
vn 0.000148654 1 -0.0002068281
vn -8.064508E-05 1 -0.0002563
vn 0.0002563 1 -8.070469E-05
vn 0.003154755 1 -1.92523E-05
vn -0.003166199 1 -1.871586E-05
vn 0.003166199 1 1.883507E-05
vn 0.4353027 0.9003906 -0.002891541
vn 0.4360352 0.8999023 0.002853394
vn 0.000254631 1 7.909536E-05
vn 0.411377 0.9023438 0.1293945
vn 0.769043 0.314209 -0.5571289
vn 0.7836914 0.2397461 -0.5727539
vn 0.9243164 0.2233887 -0.3093262
vn 0.909668 0.2963867 -0.2910156
vn 0.9819336 0.1900635 -0.00919342
vn 0.6835938 0.6967773 -0.2183838
vn 0.5717773 0.7080078 -0.4145508
vn 0.4108887 0.9023438 -0.1300049
vn 0.3449707 0.9042969 -0.2507324
vn 0.4353027 0.9003906 -0.002891541
vn 0.7441406 0.6679688 -0.0054245
vn 0.4360352 0.8999023 0.002853394
vn 0.9667969 0.2546387 -0.007228851
vn 0.7446289 0.6674805 0.005405426
vn 0.411377 0.9023438 0.1293945
vn 0.9672852 0.2546387 0.007225037
vn 0.9819336 0.1900635 0.009185791
vn 0.9243164 0.2233887 0.3093262
vn 0.6835938 0.6962891 0.2181396
vn 0.3457031 0.9042969 0.2497559
vn 0.909668 0.2963867 0.2910156
vn 0.7836914 0.2397461 0.5727539
vn 0.5717773 0.7080078 0.4143066
vn 0.7685547 0.3144531 0.5571289
vn 0.5732422 0.2388916 0.7836914
vn 0.5566406 0.3134766 0.769043
vn 0.3100586 0.2209473 0.9248047
vn 0.4147949 0.7075195 0.5722656
vn 0.2504883 0.9042969 0.3449707
vn 0.2910156 0.2937012 0.9106445
vn 0.008995056 0.1861572 0.9824219
vn 0.21875 0.6948242 0.6850586
vn 0.0001512766 1 0.0002071857
vn 0.0002062321 1 0.000148654
vn 0.130249 0.9018555 0.4116211
vn 8.076429E-05 1 0.0002560616
vn 1.943111E-05 1 0.003252029
vn -0.0002070665 1 0.0001513958
vn -0.0002560616 1 8.094311E-05
vn -0.0001485348 1 0.0002063513
vn 0.002824783 0.8994141 0.4372559
vn 0.0052948 0.6645508 0.7475586
vn -1.877546E-05 1 0.003259659
vn -7.891655E-05 1 0.000254631
vn 8.076429E-05 1 0.0002560616
vn -0.0027771 0.8989258 0.4379883
vn 0.007022858 0.25 0.9682617
vn -0.1295166 0.9018555 0.4125977
vn -0.005268097 0.6640625 0.7475586
vn -0.007019043 0.25 0.9682617
vn -0.008995056 0.1861572 0.9824219
vn -0.3100586 0.2209473 0.9248047
vn -0.2498779 0.9042969 0.3461914
vn -0.2185059 0.6948242 0.6850586
vn -0.2910156 0.2937012 0.9106445
vn -0.5732422 0.2388916 0.7836914
vn -0.3447266 0.9047852 0.2504883
vn -0.4145508 0.7075195 0.5722656
vn -0.5566406 0.3134766 0.769043
vn -0.7836914 0.2397461 0.5727539
vn -0.4106445 0.9023438 0.130127
vn -0.003158569 1 1.955032E-05
vn -0.4353027 0.9003906 0.002904892
vn -0.5712891 0.7084961 0.4145508
vn -0.4106445 0.9023438 0.130127
vn -0.7685547 0.3144531 0.5566406
vn -0.9243164 0.2233887 0.3093262
vn -0.6831055 0.6967773 0.2183838
vn -0.4353027 0.9003906 0.002904892
vn -0.909668 0.2963867 0.2910156
vn -0.9819336 0.1900635 0.00919342
vn -0.7441406 0.6679688 0.005435944
vn -0.4360352 0.8999023 -0.002853394
vn -0.9667969 0.2546387 0.007228851
vn -0.7446289 0.6674805 -0.005405426
vn -0.4116211 0.9023438 -0.1292725
vn -0.9667969 0.2546387 -0.007225037
vn -0.9819336 0.1900635 -0.009185791
vn -0.9243164 0.2233887 -0.3093262
vn -0.6835938 0.6962891 -0.2180176
vn -0.3461914 0.9042969 -0.2498779
vn -0.5722656 0.7080078 -0.4143066
vn -0.909668 0.2963867 -0.2910156
vn -0.7836914 0.2397461 -0.5727539
vn -0.769043 0.314209 -0.5571289
vn -0.4360352 0.8999023 -0.002853394
vn -0.4116211 0.9023438 -0.1292725
vn -0.0002543926 1 -7.861853E-05
vn -0.003166199 1 -1.871586E-05
vn -0.4353027 0.9003906 0.002904892
vn -0.003158569 1 1.955032E-05
vn 0.003166199 1 1.883507E-05
vn 0.000254631 1 7.909536E-05
vn -0.0002560616 1 8.094311E-05
vn 0.0002062321 1 0.000148654
vn 0.411377 0.9023438 0.1293945
vn 0.3457031 0.9042969 0.2497559
g platform_0
f 3/3/3 2/2/2 1/1/1
f 1/1/1 5/5/5 4/4/4
f 5/5/5 6/6/6 4/4/4
f 4/4/4 6/6/6 7/7/7
f 5/5/5 8/8/8 6/6/6
f 6/6/6 9/9/9 7/7/7
f 7/7/7 9/9/9 10/10/10
f 9/9/9 11/11/11 10/10/10
f 8/8/8 12/12/12 6/6/6
f 6/6/6 12/12/12 9/9/9
f 8/8/8 13/13/13 12/12/12
f 9/9/9 14/14/14 11/11/11
f 12/12/12 14/14/14 9/9/9
f 14/14/14 15/15/15 11/11/11
f 13/13/13 16/16/16 12/12/12
f 16/16/16 13/13/13 17/17/17
f 18/18/18 16/16/16 17/17/17
f 21/21/21 20/20/20 19/19/19
f 24/24/24 23/23/23 22/22/22
f 27/27/27 26/26/26 25/25/25
f 30/30/30 29/29/29 28/28/28
f 31/31/31 30/30/30 28/28/28
f 32/32/32 30/30/30 31/31/31
f 33/33/33 31/31/31 28/28/28
f 34/34/34 33/33/33 28/28/28
f 35/35/35 32/32/32 31/31/31
f 36/36/36 32/32/32 35/35/35
f 37/37/37 33/33/33 34/34/34
f 38/38/38 37/37/37 34/34/34
f 33/33/33 39/39/39 31/31/31
f 39/39/39 35/35/35 31/31/31
f 37/37/37 40/40/40 33/33/33
f 40/40/40 39/39/39 33/33/33
f 41/41/41 36/36/36 35/35/35
f 35/35/35 39/39/39 42/42/42
f 41/41/41 35/35/35 42/42/42
f 41/41/41 43/43/43 36/36/36
f 43/43/43 44/44/44 36/36/36
f 45/45/45 44/44/44 43/43/43
f 39/39/39 40/40/40 46/46/46
f 42/42/42 39/39/39 46/46/46
f 42/42/42 47/47/47 41/41/41
f 47/47/47 43/43/43 41/41/41
f 48/48/48 45/45/45 43/43/43
f 49/49/49 45/45/45 48/48/48
f 50/50/50 48/48/48 43/43/43
f 47/47/47 50/50/50 43/43/43
f 51/51/51 49/49/49 48/48/48
f 52/52/52 49/49/49 51/51/51
f 53/53/53 52/52/52 51/51/51
f 54/54/54 50/50/50 47/47/47
f 55/55/55 47/47/47 42/42/42
f 55/55/55 54/54/54 47/47/47
f 46/46/46 55/55/55 42/42/42
f 56/56/56 54/54/54 55/55/55
f 57/57/57 55/55/55 46/46/46
f 57/57/57 56/56/56 55/55/55
f 58/58/58 57/57/57 46/46/46
f 56/56/56 57/57/57 58/58/58
f 46/46/46 40/40/40 58/58/58
f 40/40/40 59/59/59 58/58/58
f 59/59/59 40/40/40 37/37/37
f 60/60/60 59/59/59 37/37/37
f 60/60/60 37/37/37 38/38/38
f 61/61/61 60/60/60 38/38/38
f 61/61/61 38/38/38 62/62/62
f 63/63/63 61/61/61 62/62/62
f 60/60/60 61/61/61 64/64/64
f 60/60/60 64/64/64 65/65/65
f 66/66/66 65/65/65 56/56/56
f 61/61/61 67/67/67 64/64/64
f 61/61/61 63/63/63 67/67/67
f 63/63/63 68/68/68 67/67/67
f 63/63/63 69/69/69 68/68/68
f 69/69/69 70/70/70 68/68/68
f 71/71/71 68/68/68 70/70/70
f 72/72/72 71/71/71 70/70/70
f 70/70/70 73/73/73 72/72/72
f 73/73/73 74/74/74 72/72/72
f 77/77/77 76/76/76 75/75/75
f 78/78/78 77/77/77 75/75/75
f 79/79/79 77/77/77 78/78/78
f 80/80/80 78/78/78 75/75/75
f 81/81/81 80/80/80 75/75/75
f 82/82/82 80/80/80 81/81/81
f 83/83/83 82/82/82 81/81/81
f 80/80/80 82/82/82 84/84/84
f 85/85/85 80/80/80 84/84/84
f 78/78/78 80/80/80 85/85/85
f 85/85/85 84/84/84 86/86/86
f 87/87/87 79/79/79 78/78/78
f 87/87/87 78/78/78 85/85/85
f 88/88/88 85/85/85 86/86/86
f 87/87/87 85/85/85 88/88/88
f 86/86/86 89/89/89 88/88/88
f 79/79/79 87/87/87 90/90/90
f 90/90/90 87/87/87 88/88/88
f 91/91/91 79/79/79 90/90/90
f 91/91/91 90/90/90 92/92/92
f 89/89/89 93/93/93 88/88/88
f 88/88/88 93/93/93 90/90/90
f 93/93/93 89/89/89 94/94/94
f 90/90/90 95/95/95 92/92/92
f 93/93/93 95/95/95 90/90/90
f 92/92/92 95/95/95 96/96/96
f 95/95/95 93/93/93 97/97/97
f 97/97/97 93/93/93 94/94/94
f 95/95/95 98/98/98 96/96/96
f 98/98/98 95/95/95 97/97/97
f 96/96/96 98/98/98 99/99/99
f 98/98/98 100/100/100 99/99/99
f 99/99/99 100/100/100 101/101/101
f 98/98/98 97/97/97 102/102/102
f 100/100/100 98/98/98 102/102/102
f 97/97/97 94/94/94 103/103/103
f 102/102/102 97/97/97 103/103/103
f 100/100/100 104/104/104 101/101/101
f 101/101/101 104/104/104 105/105/105
f 100/100/100 102/102/102 106/106/106
f 104/104/104 100/100/100 106/106/106
f 103/103/103 94/94/94 107/107/107
f 94/94/94 108/108/108 107/107/107
f 102/102/102 103/103/103 109/109/109
f 106/106/106 102/102/102 109/109/109
f 103/103/103 107/107/107 110/110/110
f 109/109/109 103/103/103 110/110/110
f 109/109/109 110/110/110 111/111/111
f 112/112/112 107/107/107 108/108/108
f 113/113/113 112/112/112 108/108/108
f 112/112/112 114/114/114 107/107/107
f 106/106/106 109/109/109 115/115/115
f 115/115/115 109/109/109 111/111/111
f 104/104/104 106/106/106 116/116/116
f 116/116/116 106/106/106 115/115/115
f 115/115/115 111/111/111 117/117/117
f 118/118/118 117/117/117 111/111/111
f 114/114/114 118/118/118 119/119/119
f 120/120/120 115/115/115 117/117/117
f 117/117/117 118/118/118 120/120/120
f 116/116/116 115/115/115 120/120/120
f 121/121/121 104/104/104 116/116/116
f 104/104/104 121/121/121 105/105/105
f 122/122/122 118/118/118 114/114/114
f 118/118/118 122/122/122 120/120/120
f 123/123/123 116/116/116 120/120/120
f 121/121/121 116/116/116 123/123/123
f 120/120/120 122/122/122 123/123/123
f 105/105/105 121/121/121 124/124/124
f 124/124/124 121/121/121 123/123/123
f 125/125/125 105/105/105 124/124/124
f 125/125/125 124/124/124 126/126/126
f 127/127/127 122/122/122 114/114/114
f 127/127/127 114/114/114 112/112/112
f 122/122/122 128/128/128 123/123/123
f 123/123/123 128/128/128 124/124/124
f 128/128/128 122/122/122 127/127/127
f 124/124/124 129/129/129 126/126/126
f 128/128/128 129/129/129 124/124/124
f 126/126/126 129/129/129 130/130/130
f 131/131/131 127/127/127 112/112/112
f 131/131/131 112/112/112 113/113/113
f 132/132/132 128/128/128 127/127/127
f 129/129/129 128/128/128 132/132/132
f 132/132/132 127/127/127 131/131/131
f 129/129/129 133/133/133 130/130/130
f 133/133/133 129/129/129 132/132/132
f 130/130/130 133/133/133 134/134/134
f 135/135/135 131/131/131 113/113/113
f 135/135/135 113/113/113 136/136/136
f 137/137/137 135/135/135 136/136/136
f 138/138/138 132/132/132 131/131/131
f 133/133/133 132/132/132 138/138/138
f 138/138/138 131/131/131 139/139/139
f 133/133/133 140/140/140 134/134/134
f 140/140/140 133/133/133 138/138/138
f 134/134/134 140/140/140 141/141/141
f 142/142/142 138/138/138 139/139/139
f 140/140/140 138/138/138 142/142/142
f 142/142/142 139/139/139 143/143/143
f 140/140/140 144/144/144 141/141/141
f 144/144/144 140/140/140 142/142/142
f 141/141/141 144/144/144 145/145/145
f 146/146/146 142/142/142 143/143/143
f 144/144/144 142/142/142 146/146/146
f 143/143/143 147/147/147 146/146/146
f 144/144/144 148/148/148 145/145/145
f 148/148/148 144/144/144 146/146/146
f 147/147/147 149/149/149 146/146/146
f 146/146/146 149/149/149 148/148/148
f 147/147/147 150/150/150 149/149/149
f 145/145/145 148/148/148 151/151/151
f 149/149/149 151/151/151 148/148/148
f 152/152/152 145/145/145 151/151/151
f 153/153/153 152/152/152 151/151/151
f 150/150/150 154/154/154 149/149/149
f 149/149/149 154/154/154 151/151/151
f 150/150/150 155/155/155 154/154/154
f 155/155/155 156/156/156 154/154/154
f 157/157/157 153/153/153 151/151/151
f 154/154/154 157/157/157 151/151/151
f 154/154/154 156/156/156 157/157/157
f 158/158/158 153/153/153 157/157/157
f 156/156/156 159/159/159 157/157/157
f 159/159/159 158/158/158 157/157/157
f 162/162/162 161/161/161 160/160/160
f 163/163/163 162/162/162 160/160/160
f 163/163/163 160/160/160 164/164/164
f 165/165/165 163/163/163 164/164/164
f 163/163/163 165/165/165 166/166/166
f 165/165/165 167/167/167 166/166/166
f 165/165/165 168/168/168 167/167/167
f 168/168/168 169/169/169 167/167/167
f 170/170/170 167/167/167 169/169/169
f 171/171/171 170/170/170 169/169/169
